<svg width="44" height="44" viewBox="0 0 44 44" fill="none" xmlns="http://www.w3.org/2000/svg">
<path d="M22 4.8125C12.5228 4.8125 4.8125 12.5228 4.8125 22C4.8125 31.4772 12.5228 39.1875 22 39.1875C31.4772 39.1875 39.1875 31.4772 39.1875 22C39.1875 12.5228 31.4772 4.8125 22 4.8125ZM22 11.8594C22.4419 11.8594 22.8739 11.9904 23.2414 12.2359C23.6088 12.4815 23.8952 12.8304 24.0643 13.2387C24.2334 13.647 24.2777 14.0962 24.1914 14.5297C24.1052 14.9631 23.8924 15.3612 23.5799 15.6737C23.2675 15.9862 22.8693 16.199 22.4359 16.2852C22.0025 16.3714 21.5532 16.3272 21.1449 16.158C20.7367 15.9889 20.3877 15.7025 20.1422 15.3351C19.8967 14.9677 19.7656 14.5357 19.7656 14.0938C19.7656 13.5012 20.001 12.9328 20.4201 12.5138C20.8391 12.0948 21.4074 11.8594 22 11.8594ZM27.5 31.2812H17.1875V28.5312H20.9688V20.9688H18.2188V18.2188H23.7188V28.5312H27.5V31.2812Z" fill="#333333"/>
</svg>
