<svg width="32" height="32" viewBox="0 0 32 32" fill="none" xmlns="http://www.w3.org/2000/svg">
<path d="M16 3.5C9.1075 3.5 3.5 9.1075 3.5 16C3.5 22.8925 9.1075 28.5 16 28.5C22.8925 28.5 28.5 22.8925 28.5 16C28.5 9.1075 22.8925 3.5 16 3.5ZM16 8.625C16.3214 8.625 16.6356 8.7203 16.9028 8.89886C17.17 9.07742 17.3783 9.33121 17.5013 9.62814C17.6243 9.92507 17.6565 10.2518 17.5938 10.567C17.5311 10.8822 17.3763 11.1718 17.149 11.399C16.9218 11.6263 16.6322 11.7811 16.317 11.8438C16.0018 11.9065 15.6751 11.8743 15.3781 11.7513C15.0812 11.6283 14.8274 11.42 14.6489 11.1528C14.4703 10.8856 14.375 10.5714 14.375 10.25C14.375 9.81902 14.5462 9.4057 14.851 9.10095C15.1557 8.7962 15.569 8.625 16 8.625ZM20 22.75H12.5V20.75H15.25V15.25H13.25V13.25H17.25V20.75H20V22.75Z" fill="#333333"/>
</svg>
