<svg width="9" height="11" viewBox="0 0 9 11" fill="none" xmlns="http://www.w3.org/2000/svg">
<rect y="2" width="6" height="9" rx="1" fill="black"/>
<path d="M3.23864 5.88636V11H1.18182V2.27273H3.14773V3.75568H3.25C3.45076 3.26705 3.77083 2.87879 4.21023 2.59091C4.65341 2.30303 5.20076 2.15909 5.85227 2.15909C6.45455 2.15909 6.97917 2.28788 7.42614 2.54545C7.87689 2.80303 8.22538 3.17614 8.47159 3.66477C8.72159 4.15341 8.8447 4.74621 8.84091 5.44318V11H6.78409V5.76136C6.78409 5.17803 6.63258 4.72159 6.32955 4.39205C6.0303 4.0625 5.61553 3.89773 5.08523 3.89773C4.72538 3.89773 4.4053 3.97727 4.125 4.13636C3.84848 4.29167 3.63068 4.51705 3.47159 4.8125C3.31629 5.10795 3.23864 5.46591 3.23864 5.88636Z" fill="black"/>
<path d="M4.93146 5.18182L3.59659 9H2.40341L1.06854 5.18182H2.18714L2.98011 7.91371H3.01989L3.81037 5.18182H4.93146Z" fill="white"/>
</svg>
