<svg width="100" height="55" viewBox="0 0 100 55" fill="none" xmlns="http://www.w3.org/2000/svg">
<rect width="82" height="30" rx="2" fill="#333333"/>
<rect x="18.4742" y="22.5245" width="81" height="27" rx="1.5" transform="rotate(2.88047 18.4742 22.5245)" fill="white" stroke="#333333"/>
<path d="M28.8523 11.2727L25.7443 20H23.4716L20.3636 11.2727H22.5568L24.5625 17.7557H24.6534L26.6648 11.2727H28.8523ZM33.7855 20.1705C32.9332 20.1705 32.1946 19.983 31.5696 19.608C30.9446 19.233 30.4598 18.7083 30.1151 18.0341C29.7741 17.3598 29.6037 16.572 29.6037 15.6705C29.6037 14.7689 29.7741 13.9792 30.1151 13.3011C30.4598 12.6231 30.9446 12.0966 31.5696 11.7216C32.1946 11.3466 32.9332 11.1591 33.7855 11.1591C34.6378 11.1591 35.3764 11.3466 36.0014 11.7216C36.6264 12.0966 37.1094 12.6231 37.4503 13.3011C37.795 13.9792 37.9673 14.7689 37.9673 15.6705C37.9673 16.572 37.795 17.3598 37.4503 18.0341C37.1094 18.7083 36.6264 19.233 36.0014 19.608C35.3764 19.983 34.6378 20.1705 33.7855 20.1705ZM33.7969 18.5227C34.259 18.5227 34.6454 18.3958 34.956 18.142C35.2666 17.8845 35.4976 17.5398 35.6491 17.108C35.8045 16.6761 35.8821 16.1951 35.8821 15.6648C35.8821 15.1307 35.8045 14.6477 35.6491 14.2159C35.4976 13.7803 35.2666 13.4337 34.956 13.1761C34.6454 12.9186 34.259 12.7898 33.7969 12.7898C33.3234 12.7898 32.9295 12.9186 32.6151 13.1761C32.3045 13.4337 32.0715 13.7803 31.9162 14.2159C31.7647 14.6477 31.6889 15.1307 31.6889 15.6648C31.6889 16.1951 31.7647 16.6761 31.9162 17.108C32.0715 17.5398 32.3045 17.8845 32.6151 18.142C32.9295 18.3958 33.3234 18.5227 33.7969 18.5227ZM39.7131 20V11.2727H41.7699V20H39.7131ZM40.7472 10.0341C40.4214 10.0341 40.1411 9.92614 39.9062 9.71023C39.6714 9.49053 39.554 9.22727 39.554 8.92045C39.554 8.60985 39.6714 8.34659 39.9062 8.13068C40.1411 7.91098 40.4214 7.80114 40.7472 7.80114C41.0767 7.80114 41.357 7.91098 41.5881 8.13068C41.8229 8.34659 41.9403 8.60985 41.9403 8.92045C41.9403 9.22727 41.8229 9.49053 41.5881 9.71023C41.357 9.92614 41.0767 10.0341 40.7472 10.0341ZM47.6918 20.1705C46.8205 20.1705 46.0724 19.9792 45.4474 19.5966C44.8262 19.214 44.3471 18.6856 44.0099 18.0114C43.6766 17.3333 43.5099 16.553 43.5099 15.6705C43.5099 14.7841 43.6804 14.0019 44.0213 13.3239C44.3622 12.642 44.8433 12.1117 45.4645 11.733C46.0895 11.3504 46.8281 11.1591 47.6804 11.1591C48.3887 11.1591 49.0156 11.2898 49.5611 11.5511C50.1103 11.8087 50.5478 12.1742 50.8736 12.6477C51.1993 13.1174 51.3849 13.6667 51.4304 14.2955H49.4645C49.3849 13.875 49.1955 13.5246 48.8963 13.2443C48.6009 12.9602 48.205 12.8182 47.7088 12.8182C47.2884 12.8182 46.919 12.9318 46.6009 13.1591C46.2827 13.3826 46.0346 13.7045 45.8565 14.125C45.6823 14.5455 45.5952 15.0492 45.5952 15.6364C45.5952 16.2311 45.6823 16.7424 45.8565 17.1705C46.0308 17.5947 46.2751 17.9223 46.5895 18.1534C46.9077 18.3807 47.2808 18.4943 47.7088 18.4943C48.0118 18.4943 48.2827 18.4375 48.5213 18.3239C48.7637 18.2064 48.9664 18.0379 49.1293 17.8182C49.2921 17.5985 49.4039 17.3314 49.4645 17.017H51.4304C51.3812 17.6345 51.1993 18.1818 50.8849 18.6591C50.5705 19.1326 50.1425 19.5038 49.6009 19.7727C49.0592 20.0379 48.4228 20.1705 47.6918 20.1705ZM56.983 20.1705C56.108 20.1705 55.3523 19.9886 54.7159 19.625C54.0833 19.2576 53.5966 18.7386 53.2557 18.0682C52.9148 17.3939 52.7443 16.6004 52.7443 15.6875C52.7443 14.7898 52.9148 14.0019 53.2557 13.3239C53.6004 12.642 54.0814 12.1117 54.6989 11.733C55.3163 11.3504 56.0417 11.1591 56.875 11.1591C57.4129 11.1591 57.9205 11.2462 58.3977 11.4205C58.8788 11.5909 59.303 11.8561 59.6705 12.2159C60.0417 12.5758 60.3333 13.0341 60.5455 13.5909C60.7576 14.1439 60.8636 14.803 60.8636 15.5682V16.1989H53.7102V14.8125H58.892C58.8883 14.4186 58.803 14.0682 58.6364 13.7614C58.4697 13.4508 58.2367 13.2064 57.9375 13.0284C57.642 12.8504 57.2973 12.7614 56.9034 12.7614C56.483 12.7614 56.1136 12.8636 55.7955 13.0682C55.4773 13.2689 55.2292 13.5341 55.0511 13.8636C54.8769 14.1894 54.7879 14.5473 54.7841 14.9375V16.1477C54.7841 16.6553 54.8769 17.0909 55.0625 17.4545C55.2481 17.8144 55.5076 18.0909 55.8409 18.2841C56.1742 18.4735 56.5644 18.5682 57.0114 18.5682C57.3106 18.5682 57.5814 18.5265 57.8239 18.4432C58.0663 18.3561 58.2765 18.2292 58.4545 18.0625C58.6326 17.8958 58.767 17.6894 58.858 17.4432L60.7784 17.6591C60.6572 18.1667 60.4261 18.6098 60.0852 18.9886C59.7481 19.3636 59.3163 19.6553 58.7898 19.8636C58.2633 20.0682 57.661 20.1705 56.983 20.1705Z" fill="white"/>
<path d="M40.6129 37.0303L40.3559 42.1375L38.3017 42.0342L38.7403 33.3179L40.7037 33.4167L40.6292 34.8978L40.7313 34.9029C40.9564 34.425 41.2956 34.0533 41.7489 33.7879C42.2059 33.5226 42.7598 33.4064 43.4105 33.4391C44.012 33.4694 44.5295 33.6244 44.963 33.9041C45.4002 34.184 45.7295 34.5741 45.9509 35.0745C46.176 35.5751 46.2692 36.1733 46.2304 36.8692L45.9511 42.419L43.8969 42.3157L44.1601 37.0837C44.1895 36.5011 44.0611 36.0376 43.775 35.6932C43.4927 35.3491 43.0867 35.1637 42.5571 35.137C42.1977 35.1189 41.874 35.1823 41.5861 35.3271C41.3021 35.4683 41.0733 35.6825 40.8995 35.9695C40.7296 36.2568 40.634 36.6104 40.6129 37.0303ZM51.8328 42.8857C50.9816 42.8428 50.2533 42.6184 49.648 42.2125C49.0426 41.8066 48.5847 41.2583 48.2744 40.5675C47.9678 39.877 47.8371 39.0816 47.8824 38.1812C47.9277 37.2808 48.1377 36.5006 48.5122 35.8406C48.8905 35.1807 49.4012 34.6792 50.0443 34.3361C50.6873 33.993 51.4345 33.8429 52.2857 33.8857C53.1369 33.9285 53.8651 34.1529 54.4705 34.5588C55.0759 34.9648 55.5318 35.5149 55.8382 36.2092C56.1484 36.9037 56.2808 37.7011 56.2355 38.6015C56.1902 39.5019 55.9785 40.2801 55.6003 40.9362C55.226 41.5924 54.7173 42.0921 54.0742 42.4352C53.4311 42.7783 52.684 42.9285 51.8328 42.8857ZM51.927 41.2406C52.3885 41.2638 52.7808 41.1565 53.1037 40.9186C53.4269 40.677 53.675 40.3443 53.848 39.9207C54.0248 39.4972 54.1265 39.0207 54.1532 38.491C54.18 37.9576 54.1267 37.4714 53.9933 37.0323C53.8639 36.5896 53.6505 36.2319 53.3533 35.959C53.056 35.6861 52.6766 35.5381 52.2151 35.5149C51.7422 35.4911 51.3423 35.5999 51.0153 35.8414C50.6922 36.083 50.4421 36.4174 50.2651 36.8447C50.0921 37.2684 49.9921 37.7469 49.9653 38.2803C49.9387 38.8099 49.9901 39.2942 50.1198 39.7331C50.2532 40.1722 50.4685 40.5281 50.7658 40.801C51.067 41.0703 51.4541 41.2168 51.927 41.2406ZM62.5525 34.516L62.4725 36.1049L57.4618 35.8528L57.5418 34.2639L62.5525 34.516ZM58.8839 32.2379L60.9381 32.3413L60.5264 40.5241C60.5125 40.8003 60.5435 41.0142 60.6193 41.1659C60.699 41.3141 60.8076 41.4181 60.9449 41.4781C61.0822 41.5382 61.236 41.5724 61.4062 41.581C61.5348 41.5875 61.6526 41.5839 61.7595 41.5703C61.8701 41.5569 61.9542 41.5441 62.0117 41.5318L62.2771 43.1552C62.1655 43.1875 62.0064 43.2212 61.7998 43.2563C61.597 43.2916 61.3498 43.3057 61.0581 43.2986C60.5428 43.2879 60.0833 43.187 59.6795 42.996C59.2759 42.8013 58.9622 42.5162 58.7384 42.1408C58.5183 41.7657 58.4239 41.3058 58.455 40.7612L58.8839 32.2379ZM67.5885 43.6784C66.7146 43.6344 65.969 43.4149 65.3517 43.0197C64.7384 42.621 64.2783 42.0782 63.9715 41.3915C63.6649 40.701 63.5346 39.8999 63.5805 38.9881C63.6256 38.0915 63.8354 37.3132 64.21 36.6532C64.5885 35.9895 65.0956 35.4841 65.7313 35.1368C66.3671 34.7857 67.1012 34.6311 67.9335 34.673C68.4707 34.7 68.9732 34.8126 69.4412 35.0106C69.913 35.205 70.3234 35.4911 70.6723 35.869C71.025 36.247 71.2932 36.7194 71.4771 37.2862C71.6612 37.8492 71.734 38.5128 71.6955 39.277L71.6638 39.9069L64.5194 39.5474L64.5891 38.1628L69.7644 38.4232C69.7804 38.0295 69.7129 37.6753 69.5619 37.3605C69.411 37.0419 69.1906 36.7862 68.9007 36.5934C68.6146 36.4007 68.2748 36.2945 67.8813 36.2747C67.4614 36.2536 67.0874 36.3371 66.7594 36.5254C66.4315 36.71 66.1704 36.9623 65.976 37.2825C65.7856 37.5991 65.6787 37.9521 65.6553 38.3416L65.5945 39.5503C65.569 40.0572 65.6398 40.4969 65.8069 40.8694C65.9742 41.2382 66.2194 41.5274 66.5426 41.737C66.866 41.943 67.2509 42.0571 67.6973 42.0796C67.9962 42.0946 68.2688 42.0666 68.5151 41.9956C68.7616 41.9208 68.9779 41.8046 69.1641 41.6471C69.3503 41.4896 69.495 41.2901 69.5981 41.0488L71.5053 41.361C71.3588 41.8618 71.1057 42.2928 70.7462 42.654C70.3907 43.0116 69.9447 43.2812 69.4084 43.4628C68.8723 43.6406 68.2656 43.7125 67.5885 43.6784ZM80.4223 37.7249L78.5394 37.835C78.496 37.6432 78.4122 37.4607 78.2882 37.2876C78.1679 37.1146 78.0007 36.9716 77.7864 36.8584C77.5721 36.7452 77.3061 36.6806 76.9883 36.6646C76.5608 36.6431 76.1968 36.7177 75.8961 36.8885C75.5993 37.0594 75.4453 37.2925 75.4343 37.5877C75.4177 37.841 75.5 38.0518 75.6812 38.2202C75.8662 38.3888 76.1774 38.5354 76.6148 38.6598L78.0856 39.0524C78.9014 39.2717 79.5001 39.5843 79.8817 39.9904C80.267 40.3966 80.4459 40.912 80.4183 41.5364C80.3869 42.0847 80.2017 42.5609 79.8628 42.9648C79.5279 43.3651 79.0746 43.6685 78.5029 43.8749C77.9312 44.0813 77.2822 44.1662 76.5558 44.1296C75.489 44.0759 74.6414 43.8095 74.0132 43.3304C73.3852 42.8475 73.0289 42.2018 72.9444 41.3935L74.9573 41.3014C75.0283 41.6994 75.2063 42.0061 75.4913 42.2214C75.7763 42.4368 76.1552 42.5564 76.6281 42.5802C77.1161 42.6047 77.5127 42.5242 77.8179 42.3385C78.1268 42.153 78.2887 41.9128 78.3036 41.6177C78.3161 41.368 78.23 41.157 78.0453 40.9846C77.8643 40.8124 77.5755 40.6727 77.1789 40.5655L75.7078 40.1786C74.8805 39.9625 74.2767 39.6382 73.8965 39.2057C73.5164 38.7694 73.3443 38.2335 73.38 37.5981C73.4033 37.0608 73.5723 36.6028 73.8872 36.2242C74.2061 35.842 74.6357 35.5564 75.1762 35.3674C75.7207 35.1748 76.3409 35.096 77.037 35.1311C78.0585 35.1825 78.8514 35.4404 79.4159 35.905C79.9842 36.3698 80.3197 36.9764 80.4223 37.7249Z" fill="#333333"/>
</svg>
