<svg width="48" height="48" viewBox="0 0 48 48" fill="none" xmlns="http://www.w3.org/2000/svg">
<path d="M7.32692 41.2629C5.03467 39.049 3.2063 36.4007 1.94848 33.4726C0.690667 30.5445 0.0285978 27.3953 0.000906162 24.2085C-0.0267854 21.0218 0.580455 17.8615 1.7872 14.912C2.99394 11.9625 4.77601 9.28286 7.02944 7.02944C9.28286 4.77601 11.9625 2.99394 14.912 1.7872C17.8615 0.580455 21.0218 -0.0267854 24.2085 0.000906162C27.3953 0.0285978 30.5445 0.690667 33.4726 1.94848C36.4007 3.2063 39.049 5.03467 41.2629 7.32692C45.6347 11.8534 48.0538 17.9158 47.9991 24.2085C47.9444 30.5013 45.4204 36.5208 40.9706 40.9706C36.5208 45.4204 30.5013 47.9444 24.2085 47.9991C17.9158 48.0538 11.8534 45.6347 7.32692 41.2629ZM17.0949 14.6949V33.8949H21.8949V14.6949H17.0949ZM26.6949 14.6949V33.8949H31.4949V14.6949H26.6949Z" fill="#333333"/>
</svg>
